<svg xmlns="http://www.w3.org/2000/svg" viewBox="0 0 336.9 223.19"><defs><style>.cls-1,.cls-2{fill:#fff;}.cls-2{font-size:111.88px;stroke:#000;stroke-miterlimit:10;stroke-width:1.26px;font-family:KozGoPr6N-Heavy-90ms-RKSJ-H, Kozuka Gothic Pr6N;}</style></defs><g id="Layer_2" data-name="Layer 2"><g id="Layer_2-2" data-name="Layer 2"><path d="M278.72,111.59a112.12,112.12,0,0,1-1.91,20.63c-.27,1.51-.59,3-.94,4.5A110.34,110.34,0,0,1,267,161.37q-1.22,2.44-2.56,4.83a112.36,112.36,0,0,1-18.21,24.08q-2.87,2.88-5.93,5.55A111.7,111.7,0,0,1,73.65,172.57,110.26,110.26,0,0,1,60,142.93a111.8,111.8,0,0,1-4.44-29.49c0-.61,0-1.23,0-1.85a111.93,111.93,0,0,1,.87-14,111,111,0,0,1,14.48-42.5A113.09,113.09,0,0,1,82,39.46a109.89,109.89,0,0,1,9.94-10.3A111.61,111.61,0,0,1,226.32,17Q230.82,19.8,235,23a112.19,112.19,0,0,1,20.62,20.63q1.93,2.51,3.72,5.12A110.81,110.81,0,0,1,272,73.38c.56,1.52,1.08,3.07,1.57,4.62a111.16,111.16,0,0,1,4.81,24.88c.12,1.47.2,3,.25,4.43S278.72,110.16,278.72,111.59Z"/><path class="cls-1" d="M235,23l-27.5.3c-38.48,3.4-77.07,5.65-115.61,5.83a111.54,111.54,0,0,1,20.67-14.95Q169.46,15.62,226.32,17,230.82,19.8,235,23Z"/><path class="cls-1" d="M246.25,190.28q-2.87,2.88-5.93,5.55l-32.79.34c-35.26,3.12-70.62,5.27-105.95,5.74a111.17,111.17,0,0,1-17.3-15.56Q165.27,188.36,246.25,190.28Z"/><path class="cls-1" d="M267,161.37q-1.22,2.44-2.56,4.83l-56.93.6c-44.55,3.95-89.25,6.34-133.88,5.77a112.51,112.51,0,0,1-8.72-16.06C132.3,158.16,199.66,159.92,267,161.37Z"/><path class="cls-1" d="M276.81,132.22c-.27,1.51-.59,3-.94,4.5q-34.17.34-68.34.72c-49.1,4.34-98.38,6.8-147.54,5.49a108.5,108.5,0,0,1-3.41-16C130,128.73,203.4,130.66,276.81,132.22Z"/><path class="cls-1" d="M278.63,107.31l-71.1.76c-50.58,4.48-101.35,7-152,5.37,0-.61,0-1.23,0-1.85a111.93,111.93,0,0,1,.87-14c74,1.81,148,3.75,222,5.31C278.5,104.35,278.58,105.83,278.63,107.31Z"/><path class="cls-1" d="M273.57,78l-66,.7c-49.45,4.38-99.09,6.84-148.6,5.47A109.42,109.42,0,0,1,64.2,68.39c69.28,1.7,138.54,3.51,207.8,5C272.56,74.9,273.08,76.45,273.57,78Z"/><path class="cls-1" d="M259.37,48.78l-51.84.56c-45.48,4-91.09,6.43-136.65,5.73A113.09,113.09,0,0,1,82,39.46q86.84,2.16,173.67,4.2Q257.58,46.17,259.37,48.78Z"/><text class="cls-2" transform="translate(0.63 158.47)">新世界</text></g></g></svg>